<?xml version="1.0" encoding="UTF-8" standalone="no"?>
<!DOCTYPE svg PUBLIC "-//W3C//DTD SVG 1.1//EN"
 "http://www.w3.org/Graphics/SVG/1.1/DTD/svg11.dtd">
<!-- Generated by graphviz version 14.1.4 (20260321.0153)
 -->
<!-- Title: G Pages: 1 -->
<svg width="511pt" height="75pt"
 viewBox="0.00 0.00 511.00 75.00" xmlns="http://www.w3.org/2000/svg" xmlns:xlink="http://www.w3.org/1999/xlink">
<g id="graph0" class="graph" transform="scale(1 1) rotate(0) translate(4 70.58)">
<title>G</title>
<polygon fill="white" stroke="none" points="-4,4 -4,-70.58 507.39,-70.58 507.39,4 -4,4"/>
<text xml:space="preserve" text-anchor="middle" x="251.7" y="-47.38" font-family="Times,serif" font-size="16.00">Ordered local graph: n=8, connect when |i&#45;j| &lt;= 2</text>
<!-- 0&#45;&#45;1 -->
<g id="edge1" class="edge">
<title>0&#45;&#45;1</title>
<path fill="none" stroke="#2a6fdb" stroke-width="1.8" d="M32.83,-19.92C43.26,-19.92 56.65,-19.92 67.04,-19.92"/>
</g>
<!-- 0&#45;&#45;2 -->
<g id="edge2" class="edge">
<title>0&#45;&#45;2</title>
<path fill="none" stroke="#2a6fdb" stroke-width="1.8" d="M31.32,-27.11C44.72,-32.81 64.97,-39.83 83.48,-39.83 102,-39.83 122.25,-32.81 135.65,-27.11"/>
</g>
<!-- 1&#45;&#45;2 -->
<g id="edge3" class="edge">
<title>1&#45;&#45;2</title>
<path fill="none" stroke="#2a6fdb" stroke-width="1.8" d="M100.12,-19.92C110.55,-19.92 123.94,-19.92 134.33,-19.92"/>
</g>
<!-- 1&#45;&#45;3 -->
<g id="edge4" class="edge">
<title>1&#45;&#45;3</title>
<path fill="none" stroke="#2a6fdb" stroke-width="1.8" d="M98.61,-12.73C112,-7.02 132.25,0 150.77,0 169.29,0 189.53,-7.02 202.93,-12.73"/>
</g>
<!-- 2&#45;&#45;3 -->
<g id="edge5" class="edge">
<title>2&#45;&#45;3</title>
<path fill="none" stroke="#2a6fdb" stroke-width="1.8" d="M167.4,-19.92C177.83,-19.92 191.22,-19.92 201.61,-19.92"/>
</g>
<!-- 2&#45;&#45;4 -->
<g id="edge6" class="edge">
<title>2&#45;&#45;4</title>
<path fill="none" stroke="#2a6fdb" stroke-width="1.8" d="M165.89,-12.73C179.29,-7.02 199.54,0 218.05,0 236.57,0 256.82,-7.02 270.21,-12.73"/>
</g>
<!-- 3&#45;&#45;4 -->
<g id="edge7" class="edge">
<title>3&#45;&#45;4</title>
<path fill="none" stroke="#2a6fdb" stroke-width="1.8" d="M234.69,-19.92C245.12,-19.92 258.5,-19.92 268.9,-19.92"/>
</g>
<!-- 3&#45;&#45;5 -->
<g id="edge8" class="edge">
<title>3&#45;&#45;5</title>
<path fill="none" stroke="#2a6fdb" stroke-width="1.8" d="M233.18,-12.73C246.57,-7.02 266.82,0 285.34,0 303.86,0 324.1,-7.02 337.5,-12.73"/>
</g>
<!-- 4&#45;&#45;5 -->
<g id="edge9" class="edge">
<title>4&#45;&#45;5</title>
<path fill="none" stroke="#2a6fdb" stroke-width="1.8" d="M301.97,-19.92C312.4,-19.92 325.79,-19.92 336.18,-19.92"/>
</g>
<!-- 4&#45;&#45;6 -->
<g id="edge10" class="edge">
<title>4&#45;&#45;6</title>
<path fill="none" stroke="#2a6fdb" stroke-width="1.8" d="M300.46,-12.73C313.86,-7.02 334.11,0 352.62,0 371.14,0 391.39,-7.02 404.78,-12.73"/>
</g>
<!-- 5&#45;&#45;6 -->
<g id="edge11" class="edge">
<title>5&#45;&#45;6</title>
<path fill="none" stroke="#2a6fdb" stroke-width="1.8" d="M369.25,-19.92C379.68,-19.92 393.07,-19.92 403.47,-19.92"/>
</g>
<!-- 5&#45;&#45;7 -->
<g id="edge12" class="edge">
<title>5&#45;&#45;7</title>
<path fill="none" stroke="#2a6fdb" stroke-width="1.8" d="M367.75,-12.73C381.14,-7.02 401.39,0 419.91,0 438.42,0 458.67,-7.02 472.07,-12.73"/>
</g>
<!-- 6&#45;&#45;7 -->
<g id="edge13" class="edge">
<title>6&#45;&#45;7</title>
<path fill="none" stroke="#2a6fdb" stroke-width="1.8" d="M436.54,-19.92C446.97,-19.92 460.36,-19.92 470.75,-19.92"/>
</g>
<!-- 0 -->
<g id="node1" class="node">
<title>0</title>
<ellipse fill="#fffdf2" stroke="#444444" stroke-width="1.2" cx="16.2" cy="-19.92" rx="16.2" ry="16.2"/>
<text xml:space="preserve" text-anchor="middle" x="16.2" y="-15.07" font-family="Times,serif" font-size="13.00">0</text>
</g>
<!-- 1 -->
<g id="node2" class="node">
<title>1</title>
<ellipse fill="#fffdf2" stroke="#444444" stroke-width="1.2" cx="83.48" cy="-19.92" rx="16.2" ry="16.2"/>
<text xml:space="preserve" text-anchor="middle" x="83.48" y="-15.07" font-family="Times,serif" font-size="13.00">1</text>
</g>
<!-- 2 -->
<g id="node3" class="node">
<title>2</title>
<ellipse fill="#fffdf2" stroke="#444444" stroke-width="1.2" cx="150.77" cy="-19.92" rx="16.2" ry="16.2"/>
<text xml:space="preserve" text-anchor="middle" x="150.77" y="-15.07" font-family="Times,serif" font-size="13.00">2</text>
</g>
<!-- 3 -->
<g id="node4" class="node">
<title>3</title>
<ellipse fill="#fffdf2" stroke="#444444" stroke-width="1.2" cx="218.05" cy="-19.92" rx="16.2" ry="16.2"/>
<text xml:space="preserve" text-anchor="middle" x="218.05" y="-15.07" font-family="Times,serif" font-size="13.00">3</text>
</g>
<!-- 4 -->
<g id="node5" class="node">
<title>4</title>
<ellipse fill="#fffdf2" stroke="#444444" stroke-width="1.2" cx="285.34" cy="-19.92" rx="16.2" ry="16.2"/>
<text xml:space="preserve" text-anchor="middle" x="285.34" y="-15.07" font-family="Times,serif" font-size="13.00">4</text>
</g>
<!-- 5 -->
<g id="node6" class="node">
<title>5</title>
<ellipse fill="#fffdf2" stroke="#444444" stroke-width="1.2" cx="352.62" cy="-19.92" rx="16.2" ry="16.2"/>
<text xml:space="preserve" text-anchor="middle" x="352.62" y="-15.07" font-family="Times,serif" font-size="13.00">5</text>
</g>
<!-- 6 -->
<g id="node7" class="node">
<title>6</title>
<ellipse fill="#fffdf2" stroke="#444444" stroke-width="1.2" cx="419.91" cy="-19.92" rx="16.2" ry="16.2"/>
<text xml:space="preserve" text-anchor="middle" x="419.91" y="-15.07" font-family="Times,serif" font-size="13.00">6</text>
</g>
<!-- 7 -->
<g id="node8" class="node">
<title>7</title>
<ellipse fill="#fffdf2" stroke="#444444" stroke-width="1.2" cx="487.19" cy="-19.92" rx="16.2" ry="16.2"/>
<text xml:space="preserve" text-anchor="middle" x="487.19" y="-15.07" font-family="Times,serif" font-size="13.00">7</text>
</g>
</g>
</svg>
