<?xml version="1.0" encoding="UTF-8" standalone="no"?>
<!DOCTYPE svg PUBLIC "-//W3C//DTD SVG 1.1//EN"
 "http://www.w3.org/Graphics/SVG/1.1/DTD/svg11.dtd">
<!-- Generated by graphviz version 14.1.4 (20260321.0153)
 -->
<!-- Title: G Pages: 1 -->
<svg width="385pt" height="213pt"
 viewBox="0.00 0.00 385.00 213.00" xmlns="http://www.w3.org/2000/svg" xmlns:xlink="http://www.w3.org/1999/xlink">
<g id="graph0" class="graph" transform="scale(1 1) rotate(0) translate(4 208.85)">
<title>G</title>
<polygon fill="white" stroke="none" points="-4,4 -4,-208.85 381.31,-208.85 381.31,4 -4,4"/>
<!-- 0&#45;&#45;1 -->
<g id="edge1" class="edge">
<title>0&#45;&#45;1</title>
<path fill="none" stroke="#2a6fdb" stroke-width="1.8" d="M27.83,-114.06C44.29,-130.51 74.2,-160.43 90.71,-176.93"/>
</g>
<!-- 0&#45;&#45;2 -->
<g id="edge2" class="edge">
<title>0&#45;&#45;2</title>
<path fill="none" stroke="#2a6fdb" stroke-width="1.8" d="M27.83,-90.8C44.29,-74.34 74.2,-44.43 90.71,-27.92"/>
</g>
<!-- 1&#45;&#45;2 -->
<g id="edge3" class="edge">
<title>1&#45;&#45;2</title>
<path fill="none" stroke="#2a6fdb" stroke-width="1.8" d="M102.43,-172.12C102.43,-139.24 102.43,-65.98 102.43,-32.94"/>
</g>
<!-- 2&#45;&#45;3 -->
<g id="edge4" class="edge">
<title>2&#45;&#45;3</title>
<path fill="none" stroke="#2a6fdb" stroke-width="1.8" d="M117.43,-23.7C150.21,-40.09 227.87,-78.92 260.28,-95.13"/>
</g>
<!-- 3&#45;&#45;4 -->
<g id="edge5" class="edge">
<title>3&#45;&#45;4</title>
<path fill="none" stroke="#2a6fdb" stroke-width="1.8" d="M286.51,-114.06C302.96,-130.51 332.88,-160.43 349.39,-176.93"/>
</g>
<!-- 3&#45;&#45;5 -->
<g id="edge6" class="edge">
<title>3&#45;&#45;5</title>
<path fill="none" stroke="#2a6fdb" stroke-width="1.8" d="M286.51,-90.8C302.96,-74.34 332.88,-44.43 349.39,-27.92"/>
</g>
<!-- 4&#45;&#45;5 -->
<g id="edge7" class="edge">
<title>4&#45;&#45;5</title>
<path fill="none" stroke="#2a6fdb" stroke-width="1.8" d="M361.11,-172.12C361.11,-139.24 361.11,-65.98 361.11,-32.94"/>
</g>
<!-- 0 -->
<g id="node1" class="node">
<title>0</title>
<ellipse fill="#fffdf2" stroke="#444444" stroke-width="1.2" cx="16.2" cy="-102.43" rx="16.2" ry="16.2"/>
<text xml:space="preserve" text-anchor="middle" x="16.2" y="-97.38" font-family="Times,serif" font-size="14.00">0</text>
</g>
<!-- 1 -->
<g id="node2" class="node">
<title>1</title>
<ellipse fill="#fffdf2" stroke="#444444" stroke-width="1.2" cx="102.43" cy="-188.65" rx="16.2" ry="16.2"/>
<text xml:space="preserve" text-anchor="middle" x="102.43" y="-183.6" font-family="Times,serif" font-size="14.00">1</text>
</g>
<!-- 2 -->
<g id="node3" class="node">
<title>2</title>
<ellipse fill="#fffdf2" stroke="#444444" stroke-width="1.2" cx="102.43" cy="-16.2" rx="16.2" ry="16.2"/>
<text xml:space="preserve" text-anchor="middle" x="102.43" y="-11.15" font-family="Times,serif" font-size="14.00">2</text>
</g>
<!-- 3 -->
<g id="node4" class="node">
<title>3</title>
<ellipse fill="#fffdf2" stroke="#444444" stroke-width="1.2" cx="274.88" cy="-102.43" rx="16.2" ry="16.2"/>
<text xml:space="preserve" text-anchor="middle" x="274.88" y="-97.38" font-family="Times,serif" font-size="14.00">3</text>
</g>
<!-- 4 -->
<g id="node5" class="node">
<title>4</title>
<ellipse fill="#fffdf2" stroke="#444444" stroke-width="1.2" cx="361.11" cy="-188.65" rx="16.2" ry="16.2"/>
<text xml:space="preserve" text-anchor="middle" x="361.11" y="-183.6" font-family="Times,serif" font-size="14.00">4</text>
</g>
<!-- 5 -->
<g id="node6" class="node">
<title>5</title>
<ellipse fill="#fffdf2" stroke="#444444" stroke-width="1.2" cx="361.11" cy="-16.2" rx="16.2" ry="16.2"/>
<text xml:space="preserve" text-anchor="middle" x="361.11" y="-11.15" font-family="Times,serif" font-size="14.00">5</text>
</g>
</g>
</svg>
