<?xml version="1.0" encoding="UTF-8" standalone="no"?>
<!DOCTYPE svg PUBLIC "-//W3C//DTD SVG 1.1//EN"
 "http://www.w3.org/Graphics/SVG/1.1/DTD/svg11.dtd">
<!-- Generated by graphviz version 14.1.4 (20260321.0153)
 -->
<!-- Title: G Pages: 1 -->
<svg width="447pt" height="168pt"
 viewBox="0.00 0.00 447.00 168.00" xmlns="http://www.w3.org/2000/svg" xmlns:xlink="http://www.w3.org/1999/xlink">
<g id="graph0" class="graph" transform="scale(1 1) rotate(0) translate(4 163.83)">
<title>G</title>
<polygon fill="white" stroke="none" points="-4,4 -4,-163.83 442.87,-163.83 442.87,4 -4,4"/>
<text xml:space="preserve" text-anchor="middle" x="219.43" y="-140.63" font-family="Times,serif" font-size="16.00">Sample SBM draw: k=2, block size=4, p_in=0.5, p_out=0.1</text>
<!-- 0&#45;&#45;1 -->
<g id="edge1" class="edge">
<title>0&#45;&#45;1</title>
<path fill="none" stroke="#2a6fdb" stroke-width="1.8" d="M33.08,-77.31C44.34,-85.35 59.66,-96.3 70.91,-104.33"/>
</g>
<!-- 0&#45;&#45;2 -->
<g id="edge2" class="edge">
<title>0&#45;&#45;2</title>
<path fill="none" stroke="#2a6fdb" stroke-width="1.8" d="M33.08,-55.77C44.34,-47.72 59.66,-36.78 70.91,-28.74"/>
</g>
<!-- 1&#45;&#45;3 -->
<g id="edge3" class="edge">
<title>1&#45;&#45;3</title>
<path fill="none" stroke="#2a6fdb" stroke-width="1.8" d="M101.04,-104.3C112.3,-96.26 127.62,-85.32 138.87,-77.28"/>
</g>
<!-- 1&#45;&#45;5 -->
<g id="edge8" class="edge">
<title>1&#45;&#45;5</title>
<path fill="none" stroke="#7aa6f7" stroke-width="1.4" d="M104.3,-115.08C153.07,-115.08 285.52,-115.08 334.44,-115.08"/>
</g>
<!-- 3&#45;&#45;4 -->
<g id="edge7" class="edge">
<title>3&#45;&#45;4</title>
<path fill="none" stroke="#7aa6f7" stroke-width="1.4" d="M172.41,-66.54C197.38,-66.54 241.63,-66.54 266.56,-66.54"/>
</g>
<!-- 4&#45;&#45;5 -->
<g id="edge4" class="edge">
<title>4&#45;&#45;5</title>
<path fill="none" stroke="#2a6fdb" stroke-width="1.8" d="M300.04,-77.31C311.3,-85.35 326.63,-96.3 337.88,-104.33"/>
</g>
<!-- 4&#45;&#45;6 -->
<g id="edge5" class="edge">
<title>4&#45;&#45;6</title>
<path fill="none" stroke="#2a6fdb" stroke-width="1.8" d="M300.04,-55.77C311.3,-47.72 326.63,-36.78 337.88,-28.74"/>
</g>
<!-- 6&#45;&#45;7 -->
<g id="edge6" class="edge">
<title>6&#45;&#45;7</title>
<path fill="none" stroke="#2a6fdb" stroke-width="1.8" d="M368,-28.77C379.26,-36.82 394.58,-47.76 405.83,-55.8"/>
</g>
<!-- 0 -->
<g id="node1" class="node">
<title>0</title>
<ellipse fill="#fffdf2" stroke="#444444" stroke-width="1.2" cx="18" cy="-66.54" rx="18" ry="18"/>
<text xml:space="preserve" text-anchor="middle" x="18" y="-61.69" font-family="Times,serif" font-size="13.00">0</text>
</g>
<!-- 1 -->
<g id="node2" class="node">
<title>1</title>
<ellipse fill="#fffdf2" stroke="#444444" stroke-width="1.2" cx="85.95" cy="-115.08" rx="18" ry="18"/>
<text xml:space="preserve" text-anchor="middle" x="85.95" y="-110.23" font-family="Times,serif" font-size="13.00">1</text>
</g>
<!-- 2 -->
<g id="node3" class="node">
<title>2</title>
<ellipse fill="#fffdf2" stroke="#444444" stroke-width="1.2" cx="85.95" cy="-18" rx="18" ry="18"/>
<text xml:space="preserve" text-anchor="middle" x="85.95" y="-13.15" font-family="Times,serif" font-size="13.00">2</text>
</g>
<!-- 3 -->
<g id="node4" class="node">
<title>3</title>
<ellipse fill="#fffdf2" stroke="#444444" stroke-width="1.2" cx="153.91" cy="-66.54" rx="18" ry="18"/>
<text xml:space="preserve" text-anchor="middle" x="153.91" y="-61.69" font-family="Times,serif" font-size="13.00">3</text>
</g>
<!-- 4 -->
<g id="node5" class="node">
<title>4</title>
<ellipse fill="#fffdf2" stroke="#444444" stroke-width="1.2" cx="284.96" cy="-66.54" rx="18" ry="18"/>
<text xml:space="preserve" text-anchor="middle" x="284.96" y="-61.69" font-family="Times,serif" font-size="13.00">4</text>
</g>
<!-- 5 -->
<g id="node6" class="node">
<title>5</title>
<ellipse fill="#fffdf2" stroke="#444444" stroke-width="1.2" cx="352.92" cy="-115.08" rx="18" ry="18"/>
<text xml:space="preserve" text-anchor="middle" x="352.92" y="-110.23" font-family="Times,serif" font-size="13.00">5</text>
</g>
<!-- 6 -->
<g id="node7" class="node">
<title>6</title>
<ellipse fill="#fffdf2" stroke="#444444" stroke-width="1.2" cx="352.92" cy="-18" rx="18" ry="18"/>
<text xml:space="preserve" text-anchor="middle" x="352.92" y="-13.15" font-family="Times,serif" font-size="13.00">6</text>
</g>
<!-- 7 -->
<g id="node8" class="node">
<title>7</title>
<ellipse fill="#fffdf2" stroke="#444444" stroke-width="1.2" cx="420.87" cy="-66.54" rx="18" ry="18"/>
<text xml:space="preserve" text-anchor="middle" x="420.87" y="-61.69" font-family="Times,serif" font-size="13.00">7</text>
</g>
</g>
</svg>
